<?xml version="1.0" encoding="utf-8" standalone="no"?>
<!DOCTYPE svg PUBLIC "-//W3C//DTD SVG 1.1//EN"
  "http://www.w3.org/Graphics/SVG/1.1/DTD/svg11.dtd">
<svg xmlns:xlink="http://www.w3.org/1999/xlink" width="1152pt" height="720pt" viewBox="0 0 1152 720" xmlns="http://www.w3.org/2000/svg" version="1.1">
 <metadata>
  <rdf:RDF xmlns:dc="http://purl.org/dc/elements/1.1/" xmlns:cc="http://creativecommons.org/ns#" xmlns:rdf="http://www.w3.org/1999/02/22-rdf-syntax-ns#">
   <cc:Work>
    <dc:type rdf:resource="http://purl.org/dc/dcmitype/StillImage"/>
    <dc:date>2023-05-16T22:29:20.726869</dc:date>
    <dc:format>image/svg+xml</dc:format>
    <dc:creator>
     <cc:Agent>
      <dc:title>Matplotlib v3.7.1, https://matplotlib.org/</dc:title>
     </cc:Agent>
    </dc:creator>
   </cc:Work>
  </rdf:RDF>
 </metadata>
 <defs>
  <style type="text/css">*{stroke-linejoin: round; stroke-linecap: butt}</style>
 </defs>
 <g id="figure_1">
  <g id="patch_1">
   <path d="M 0 720 
L 1152 720 
L 1152 0 
L 0 0 
z
" style="fill: #ffffff"/>
  </g>
  <g id="axes_1">
   <g id="patch_2">
    <path d="M 144 640.8 
L 1036.8 640.8 
L 1036.8 86.4 
L 144 86.4 
z
" style="fill: #ffffff"/>
   </g>
   <g id="PathCollection_1">
    <defs>
     <path id="m8ecce8913d" d="M -1.581139 1.581139 
L 1.581139 1.581139 
L 1.581139 -1.581139 
L -1.581139 -1.581139 
z
" style="stroke: #0000ff"/>
    </defs>
    <g clip-path="url(#p892c4a2a8b)">
     <use xlink:href="#m8ecce8913d" x="143.245065" y="640.8" style="fill: #0000ff; stroke: #0000ff"/>
     <use xlink:href="#m8ecce8913d" x="161.63803" y="540.069374" style="fill: #0000ff; stroke: #0000ff"/>
     <use xlink:href="#m8ecce8913d" x="180.030994" y="460.324295" style="fill: #0000ff; stroke: #0000ff"/>
     <use xlink:href="#m8ecce8913d" x="198.423959" y="393.170544" style="fill: #0000ff; stroke: #0000ff"/>
     <use xlink:href="#m8ecce8913d" x="216.816924" y="342.805231" style="fill: #0000ff; stroke: #0000ff"/>
     <use xlink:href="#m8ecce8913d" x="235.209889" y="300.834136" style="fill: #0000ff; stroke: #0000ff"/>
     <use xlink:href="#m8ecce8913d" x="253.602853" y="267.257261" style="fill: #0000ff; stroke: #0000ff"/>
     <use xlink:href="#m8ecce8913d" x="271.995818" y="237.877495" style="fill: #0000ff; stroke: #0000ff"/>
     <use xlink:href="#m8ecce8913d" x="290.388783" y="216.891948" style="fill: #0000ff; stroke: #0000ff"/>
     <use xlink:href="#m8ecce8913d" x="308.781748" y="200.10351" style="fill: #0000ff; stroke: #0000ff"/>
     <use xlink:href="#m8ecce8913d" x="327.174713" y="183.315072" style="fill: #0000ff; stroke: #0000ff"/>
     <use xlink:href="#m8ecce8913d" x="345.567677" y="170.723744" style="fill: #0000ff; stroke: #0000ff"/>
     <use xlink:href="#m8ecce8913d" x="363.960642" y="162.329525" style="fill: #0000ff; stroke: #0000ff"/>
     <use xlink:href="#m8ecce8913d" x="382.353607" y="153.935306" style="fill: #0000ff; stroke: #0000ff"/>
     <use xlink:href="#m8ecce8913d" x="400.746572" y="145.541087" style="fill: #0000ff; stroke: #0000ff"/>
     <use xlink:href="#m8ecce8913d" x="419.139536" y="141.343978" style="fill: #0000ff; stroke: #0000ff"/>
     <use xlink:href="#m8ecce8913d" x="437.532501" y="137.146869" style="fill: #0000ff; stroke: #0000ff"/>
     <use xlink:href="#m8ecce8913d" x="455.925466" y="132.949759" style="fill: #0000ff; stroke: #0000ff"/>
     <use xlink:href="#m8ecce8913d" x="474.318431" y="132.949759" style="fill: #0000ff; stroke: #0000ff"/>
     <use xlink:href="#m8ecce8913d" x="492.711395" y="128.75265" style="fill: #0000ff; stroke: #0000ff"/>
     <use xlink:href="#m8ecce8913d" x="511.10436" y="200.10351" style="fill: #0000ff; stroke: #0000ff"/>
     <use xlink:href="#m8ecce8913d" x="529.497325" y="271.45437" style="fill: #0000ff; stroke: #0000ff"/>
     <use xlink:href="#m8ecce8913d" x="547.89029" y="334.411012" style="fill: #0000ff; stroke: #0000ff"/>
     <use xlink:href="#m8ecce8913d" x="566.283254" y="380.579215" style="fill: #0000ff; stroke: #0000ff"/>
     <use xlink:href="#m8ecce8913d" x="584.676219" y="422.55031" style="fill: #0000ff; stroke: #0000ff"/>
     <use xlink:href="#m8ecce8913d" x="603.069184" y="456.127185" style="fill: #0000ff; stroke: #0000ff"/>
     <use xlink:href="#m8ecce8913d" x="621.462149" y="485.506951" style="fill: #0000ff; stroke: #0000ff"/>
     <use xlink:href="#m8ecce8913d" x="639.855113" y="510.689608" style="fill: #0000ff; stroke: #0000ff"/>
     <use xlink:href="#m8ecce8913d" x="658.248078" y="531.675155" style="fill: #0000ff; stroke: #0000ff"/>
     <use xlink:href="#m8ecce8913d" x="676.641043" y="548.463593" style="fill: #0000ff; stroke: #0000ff"/>
     <use xlink:href="#m8ecce8913d" x="695.034008" y="565.25203" style="fill: #0000ff; stroke: #0000ff"/>
     <use xlink:href="#m8ecce8913d" x="713.426973" y="577.843359" style="fill: #0000ff; stroke: #0000ff"/>
     <use xlink:href="#m8ecce8913d" x="731.819937" y="590.434687" style="fill: #0000ff; stroke: #0000ff"/>
     <use xlink:href="#m8ecce8913d" x="750.212902" y="594.631796" style="fill: #0000ff; stroke: #0000ff"/>
     <use xlink:href="#m8ecce8913d" x="768.605867" y="603.026015" style="fill: #0000ff; stroke: #0000ff"/>
     <use xlink:href="#m8ecce8913d" x="786.998832" y="611.420234" style="fill: #0000ff; stroke: #0000ff"/>
     <use xlink:href="#m8ecce8913d" x="805.391796" y="615.617343" style="fill: #0000ff; stroke: #0000ff"/>
     <use xlink:href="#m8ecce8913d" x="823.784761" y="619.814453" style="fill: #0000ff; stroke: #0000ff"/>
     <use xlink:href="#m8ecce8913d" x="842.177726" y="624.011562" style="fill: #0000ff; stroke: #0000ff"/>
     <use xlink:href="#m8ecce8913d" x="860.570691" y="628.208672" style="fill: #0000ff; stroke: #0000ff"/>
     <use xlink:href="#m8ecce8913d" x="878.963655" y="628.208672" style="fill: #0000ff; stroke: #0000ff"/>
     <use xlink:href="#m8ecce8913d" x="897.35662" y="632.405781" style="fill: #0000ff; stroke: #0000ff"/>
     <use xlink:href="#m8ecce8913d" x="915.749585" y="636.602891" style="fill: #0000ff; stroke: #0000ff"/>
     <use xlink:href="#m8ecce8913d" x="934.14255" y="636.602891" style="fill: #0000ff; stroke: #0000ff"/>
     <use xlink:href="#m8ecce8913d" x="952.535514" y="636.602891" style="fill: #0000ff; stroke: #0000ff"/>
    </g>
   </g>
   <g id="matplotlib.axis_1">
    <g id="xtick_1">
     <g id="line2d_1">
      <path d="M 280.505996 640.8 
L 280.505996 86.4 
" clip-path="url(#p892c4a2a8b)" style="fill: none; stroke: #000000; stroke-width: 0.8; stroke-linecap: square"/>
     </g>
     <g id="line2d_2">
      <defs>
       <path id="mbdb183334c" d="M 0 0 
L 0 3.5 
" style="stroke: #000000; stroke-width: 0.8"/>
      </defs>
      <g>
       <use xlink:href="#mbdb183334c" x="280.505996" y="640.8" style="stroke: #000000; stroke-width: 0.8"/>
      </g>
     </g>
     <g id="text_1">
      <!-- 2 -->
      <g transform="translate(277.324746 655.398438) scale(0.1 -0.1)">
       <defs>
        <path id="DejaVuSans-32" d="M 1228 531 
L 3431 531 
L 3431 0 
L 469 0 
L 469 531 
Q 828 903 1448 1529 
Q 2069 2156 2228 2338 
Q 2531 2678 2651 2914 
Q 2772 3150 2772 3378 
Q 2772 3750 2511 3984 
Q 2250 4219 1831 4219 
Q 1534 4219 1204 4116 
Q 875 4013 500 3803 
L 500 4441 
Q 881 4594 1212 4672 
Q 1544 4750 1819 4750 
Q 2544 4750 2975 4387 
Q 3406 4025 3406 3419 
Q 3406 3131 3298 2873 
Q 3191 2616 2906 2266 
Q 2828 2175 2409 1742 
Q 1991 1309 1228 531 
z
" transform="scale(0.015625)"/>
       </defs>
       <use xlink:href="#DejaVuSans-32"/>
      </g>
     </g>
    </g>
    <g id="xtick_2">
     <g id="line2d_3">
      <path d="M 417.766927 640.8 
L 417.766927 86.4 
" clip-path="url(#p892c4a2a8b)" style="fill: none; stroke: #000000; stroke-width: 0.8; stroke-linecap: square"/>
     </g>
     <g id="line2d_4">
      <g>
       <use xlink:href="#mbdb183334c" x="417.766927" y="640.8" style="stroke: #000000; stroke-width: 0.8"/>
      </g>
     </g>
     <g id="text_2">
      <!-- 4 -->
      <g transform="translate(414.585677 655.398438) scale(0.1 -0.1)">
       <defs>
        <path id="DejaVuSans-34" d="M 2419 4116 
L 825 1625 
L 2419 1625 
L 2419 4116 
z
M 2253 4666 
L 3047 4666 
L 3047 1625 
L 3713 1625 
L 3713 1100 
L 3047 1100 
L 3047 0 
L 2419 0 
L 2419 1100 
L 313 1100 
L 313 1709 
L 2253 4666 
z
" transform="scale(0.015625)"/>
       </defs>
       <use xlink:href="#DejaVuSans-34"/>
      </g>
     </g>
    </g>
    <g id="xtick_3">
     <g id="line2d_5">
      <path d="M 555.027858 640.8 
L 555.027858 86.4 
" clip-path="url(#p892c4a2a8b)" style="fill: none; stroke: #000000; stroke-width: 0.8; stroke-linecap: square"/>
     </g>
     <g id="line2d_6">
      <g>
       <use xlink:href="#mbdb183334c" x="555.027858" y="640.8" style="stroke: #000000; stroke-width: 0.8"/>
      </g>
     </g>
     <g id="text_3">
      <!-- 6 -->
      <g transform="translate(551.846608 655.398438) scale(0.1 -0.1)">
       <defs>
        <path id="DejaVuSans-36" d="M 2113 2584 
Q 1688 2584 1439 2293 
Q 1191 2003 1191 1497 
Q 1191 994 1439 701 
Q 1688 409 2113 409 
Q 2538 409 2786 701 
Q 3034 994 3034 1497 
Q 3034 2003 2786 2293 
Q 2538 2584 2113 2584 
z
M 3366 4563 
L 3366 3988 
Q 3128 4100 2886 4159 
Q 2644 4219 2406 4219 
Q 1781 4219 1451 3797 
Q 1122 3375 1075 2522 
Q 1259 2794 1537 2939 
Q 1816 3084 2150 3084 
Q 2853 3084 3261 2657 
Q 3669 2231 3669 1497 
Q 3669 778 3244 343 
Q 2819 -91 2113 -91 
Q 1303 -91 875 529 
Q 447 1150 447 2328 
Q 447 3434 972 4092 
Q 1497 4750 2381 4750 
Q 2619 4750 2861 4703 
Q 3103 4656 3366 4563 
z
" transform="scale(0.015625)"/>
       </defs>
       <use xlink:href="#DejaVuSans-36"/>
      </g>
     </g>
    </g>
    <g id="xtick_4">
     <g id="line2d_7">
      <path d="M 692.288789 640.8 
L 692.288789 86.4 
" clip-path="url(#p892c4a2a8b)" style="fill: none; stroke: #000000; stroke-width: 0.8; stroke-linecap: square"/>
     </g>
     <g id="line2d_8">
      <g>
       <use xlink:href="#mbdb183334c" x="692.288789" y="640.8" style="stroke: #000000; stroke-width: 0.8"/>
      </g>
     </g>
     <g id="text_4">
      <!-- 8 -->
      <g transform="translate(689.107539 655.398438) scale(0.1 -0.1)">
       <defs>
        <path id="DejaVuSans-38" d="M 2034 2216 
Q 1584 2216 1326 1975 
Q 1069 1734 1069 1313 
Q 1069 891 1326 650 
Q 1584 409 2034 409 
Q 2484 409 2743 651 
Q 3003 894 3003 1313 
Q 3003 1734 2745 1975 
Q 2488 2216 2034 2216 
z
M 1403 2484 
Q 997 2584 770 2862 
Q 544 3141 544 3541 
Q 544 4100 942 4425 
Q 1341 4750 2034 4750 
Q 2731 4750 3128 4425 
Q 3525 4100 3525 3541 
Q 3525 3141 3298 2862 
Q 3072 2584 2669 2484 
Q 3125 2378 3379 2068 
Q 3634 1759 3634 1313 
Q 3634 634 3220 271 
Q 2806 -91 2034 -91 
Q 1263 -91 848 271 
Q 434 634 434 1313 
Q 434 1759 690 2068 
Q 947 2378 1403 2484 
z
M 1172 3481 
Q 1172 3119 1398 2916 
Q 1625 2713 2034 2713 
Q 2441 2713 2670 2916 
Q 2900 3119 2900 3481 
Q 2900 3844 2670 4047 
Q 2441 4250 2034 4250 
Q 1625 4250 1398 4047 
Q 1172 3844 1172 3481 
z
" transform="scale(0.015625)"/>
       </defs>
       <use xlink:href="#DejaVuSans-38"/>
      </g>
     </g>
    </g>
    <g id="xtick_5">
     <g id="line2d_9">
      <path d="M 829.54972 640.8 
L 829.54972 86.4 
" clip-path="url(#p892c4a2a8b)" style="fill: none; stroke: #000000; stroke-width: 0.8; stroke-linecap: square"/>
     </g>
     <g id="line2d_10">
      <g>
       <use xlink:href="#mbdb183334c" x="829.54972" y="640.8" style="stroke: #000000; stroke-width: 0.8"/>
      </g>
     </g>
     <g id="text_5">
      <!-- 10 -->
      <g transform="translate(823.18722 655.398438) scale(0.1 -0.1)">
       <defs>
        <path id="DejaVuSans-31" d="M 794 531 
L 1825 531 
L 1825 4091 
L 703 3866 
L 703 4441 
L 1819 4666 
L 2450 4666 
L 2450 531 
L 3481 531 
L 3481 0 
L 794 0 
L 794 531 
z
" transform="scale(0.015625)"/>
        <path id="DejaVuSans-30" d="M 2034 4250 
Q 1547 4250 1301 3770 
Q 1056 3291 1056 2328 
Q 1056 1369 1301 889 
Q 1547 409 2034 409 
Q 2525 409 2770 889 
Q 3016 1369 3016 2328 
Q 3016 3291 2770 3770 
Q 2525 4250 2034 4250 
z
M 2034 4750 
Q 2819 4750 3233 4129 
Q 3647 3509 3647 2328 
Q 3647 1150 3233 529 
Q 2819 -91 2034 -91 
Q 1250 -91 836 529 
Q 422 1150 422 2328 
Q 422 3509 836 4129 
Q 1250 4750 2034 4750 
z
" transform="scale(0.015625)"/>
       </defs>
       <use xlink:href="#DejaVuSans-31"/>
       <use xlink:href="#DejaVuSans-30" x="63.623047"/>
      </g>
     </g>
    </g>
    <g id="xtick_6">
     <g id="line2d_11">
      <path d="M 966.810651 640.8 
L 966.810651 86.4 
" clip-path="url(#p892c4a2a8b)" style="fill: none; stroke: #000000; stroke-width: 0.8; stroke-linecap: square"/>
     </g>
     <g id="line2d_12">
      <g>
       <use xlink:href="#mbdb183334c" x="966.810651" y="640.8" style="stroke: #000000; stroke-width: 0.8"/>
      </g>
     </g>
     <g id="text_6">
      <!-- 12 -->
      <g transform="translate(960.448151 655.398438) scale(0.1 -0.1)">
       <use xlink:href="#DejaVuSans-31"/>
       <use xlink:href="#DejaVuSans-32" x="63.623047"/>
      </g>
     </g>
    </g>
    <g id="xtick_7">
     <g id="line2d_13">
      <path d="M 177.560298 640.8 
L 177.560298 86.4 
" clip-path="url(#p892c4a2a8b)" style="fill: none; stroke-dasharray: 0.8,1.32; stroke-dashoffset: 0; stroke: #808080; stroke-width: 0.8"/>
     </g>
     <g id="line2d_14">
      <defs>
       <path id="m2330615bb6" d="M 0 0 
L 0 2 
" style="stroke: #000000; stroke-width: 0.6"/>
      </defs>
      <g>
       <use xlink:href="#m2330615bb6" x="177.560298" y="640.8" style="stroke: #000000; stroke-width: 0.6"/>
      </g>
     </g>
    </g>
    <g id="xtick_8">
     <g id="line2d_15">
      <path d="M 211.87553 640.8 
L 211.87553 86.4 
" clip-path="url(#p892c4a2a8b)" style="fill: none; stroke-dasharray: 0.8,1.32; stroke-dashoffset: 0; stroke: #808080; stroke-width: 0.8"/>
     </g>
     <g id="line2d_16">
      <g>
       <use xlink:href="#m2330615bb6" x="211.87553" y="640.8" style="stroke: #000000; stroke-width: 0.6"/>
      </g>
     </g>
    </g>
    <g id="xtick_9">
     <g id="line2d_17">
      <path d="M 246.190763 640.8 
L 246.190763 86.4 
" clip-path="url(#p892c4a2a8b)" style="fill: none; stroke-dasharray: 0.8,1.32; stroke-dashoffset: 0; stroke: #808080; stroke-width: 0.8"/>
     </g>
     <g id="line2d_18">
      <g>
       <use xlink:href="#m2330615bb6" x="246.190763" y="640.8" style="stroke: #000000; stroke-width: 0.6"/>
      </g>
     </g>
    </g>
    <g id="xtick_10">
     <g id="line2d_19">
      <path d="M 314.821229 640.8 
L 314.821229 86.4 
" clip-path="url(#p892c4a2a8b)" style="fill: none; stroke-dasharray: 0.8,1.32; stroke-dashoffset: 0; stroke: #808080; stroke-width: 0.8"/>
     </g>
     <g id="line2d_20">
      <g>
       <use xlink:href="#m2330615bb6" x="314.821229" y="640.8" style="stroke: #000000; stroke-width: 0.6"/>
      </g>
     </g>
    </g>
    <g id="xtick_11">
     <g id="line2d_21">
      <path d="M 349.136461 640.8 
L 349.136461 86.4 
" clip-path="url(#p892c4a2a8b)" style="fill: none; stroke-dasharray: 0.8,1.32; stroke-dashoffset: 0; stroke: #808080; stroke-width: 0.8"/>
     </g>
     <g id="line2d_22">
      <g>
       <use xlink:href="#m2330615bb6" x="349.136461" y="640.8" style="stroke: #000000; stroke-width: 0.6"/>
      </g>
     </g>
    </g>
    <g id="xtick_12">
     <g id="line2d_23">
      <path d="M 383.451694 640.8 
L 383.451694 86.4 
" clip-path="url(#p892c4a2a8b)" style="fill: none; stroke-dasharray: 0.8,1.32; stroke-dashoffset: 0; stroke: #808080; stroke-width: 0.8"/>
     </g>
     <g id="line2d_24">
      <g>
       <use xlink:href="#m2330615bb6" x="383.451694" y="640.8" style="stroke: #000000; stroke-width: 0.6"/>
      </g>
     </g>
    </g>
    <g id="xtick_13">
     <g id="line2d_25">
      <path d="M 452.08216 640.8 
L 452.08216 86.4 
" clip-path="url(#p892c4a2a8b)" style="fill: none; stroke-dasharray: 0.8,1.32; stroke-dashoffset: 0; stroke: #808080; stroke-width: 0.8"/>
     </g>
     <g id="line2d_26">
      <g>
       <use xlink:href="#m2330615bb6" x="452.08216" y="640.8" style="stroke: #000000; stroke-width: 0.6"/>
      </g>
     </g>
    </g>
    <g id="xtick_14">
     <g id="line2d_27">
      <path d="M 486.397393 640.8 
L 486.397393 86.4 
" clip-path="url(#p892c4a2a8b)" style="fill: none; stroke-dasharray: 0.8,1.32; stroke-dashoffset: 0; stroke: #808080; stroke-width: 0.8"/>
     </g>
     <g id="line2d_28">
      <g>
       <use xlink:href="#m2330615bb6" x="486.397393" y="640.8" style="stroke: #000000; stroke-width: 0.6"/>
      </g>
     </g>
    </g>
    <g id="xtick_15">
     <g id="line2d_29">
      <path d="M 520.712625 640.8 
L 520.712625 86.4 
" clip-path="url(#p892c4a2a8b)" style="fill: none; stroke-dasharray: 0.8,1.32; stroke-dashoffset: 0; stroke: #808080; stroke-width: 0.8"/>
     </g>
     <g id="line2d_30">
      <g>
       <use xlink:href="#m2330615bb6" x="520.712625" y="640.8" style="stroke: #000000; stroke-width: 0.6"/>
      </g>
     </g>
    </g>
    <g id="xtick_16">
     <g id="line2d_31">
      <path d="M 589.343091 640.8 
L 589.343091 86.4 
" clip-path="url(#p892c4a2a8b)" style="fill: none; stroke-dasharray: 0.8,1.32; stroke-dashoffset: 0; stroke: #808080; stroke-width: 0.8"/>
     </g>
     <g id="line2d_32">
      <g>
       <use xlink:href="#m2330615bb6" x="589.343091" y="640.8" style="stroke: #000000; stroke-width: 0.6"/>
      </g>
     </g>
    </g>
    <g id="xtick_17">
     <g id="line2d_33">
      <path d="M 623.658324 640.8 
L 623.658324 86.4 
" clip-path="url(#p892c4a2a8b)" style="fill: none; stroke-dasharray: 0.8,1.32; stroke-dashoffset: 0; stroke: #808080; stroke-width: 0.8"/>
     </g>
     <g id="line2d_34">
      <g>
       <use xlink:href="#m2330615bb6" x="623.658324" y="640.8" style="stroke: #000000; stroke-width: 0.6"/>
      </g>
     </g>
    </g>
    <g id="xtick_18">
     <g id="line2d_35">
      <path d="M 657.973556 640.8 
L 657.973556 86.4 
" clip-path="url(#p892c4a2a8b)" style="fill: none; stroke-dasharray: 0.8,1.32; stroke-dashoffset: 0; stroke: #808080; stroke-width: 0.8"/>
     </g>
     <g id="line2d_36">
      <g>
       <use xlink:href="#m2330615bb6" x="657.973556" y="640.8" style="stroke: #000000; stroke-width: 0.6"/>
      </g>
     </g>
    </g>
    <g id="xtick_19">
     <g id="line2d_37">
      <path d="M 726.604022 640.8 
L 726.604022 86.4 
" clip-path="url(#p892c4a2a8b)" style="fill: none; stroke-dasharray: 0.8,1.32; stroke-dashoffset: 0; stroke: #808080; stroke-width: 0.8"/>
     </g>
     <g id="line2d_38">
      <g>
       <use xlink:href="#m2330615bb6" x="726.604022" y="640.8" style="stroke: #000000; stroke-width: 0.6"/>
      </g>
     </g>
    </g>
    <g id="xtick_20">
     <g id="line2d_39">
      <path d="M 760.919255 640.8 
L 760.919255 86.4 
" clip-path="url(#p892c4a2a8b)" style="fill: none; stroke-dasharray: 0.8,1.32; stroke-dashoffset: 0; stroke: #808080; stroke-width: 0.8"/>
     </g>
     <g id="line2d_40">
      <g>
       <use xlink:href="#m2330615bb6" x="760.919255" y="640.8" style="stroke: #000000; stroke-width: 0.6"/>
      </g>
     </g>
    </g>
    <g id="xtick_21">
     <g id="line2d_41">
      <path d="M 795.234487 640.8 
L 795.234487 86.4 
" clip-path="url(#p892c4a2a8b)" style="fill: none; stroke-dasharray: 0.8,1.32; stroke-dashoffset: 0; stroke: #808080; stroke-width: 0.8"/>
     </g>
     <g id="line2d_42">
      <g>
       <use xlink:href="#m2330615bb6" x="795.234487" y="640.8" style="stroke: #000000; stroke-width: 0.6"/>
      </g>
     </g>
    </g>
    <g id="xtick_22">
     <g id="line2d_43">
      <path d="M 863.864953 640.8 
L 863.864953 86.4 
" clip-path="url(#p892c4a2a8b)" style="fill: none; stroke-dasharray: 0.8,1.32; stroke-dashoffset: 0; stroke: #808080; stroke-width: 0.8"/>
     </g>
     <g id="line2d_44">
      <g>
       <use xlink:href="#m2330615bb6" x="863.864953" y="640.8" style="stroke: #000000; stroke-width: 0.6"/>
      </g>
     </g>
    </g>
    <g id="xtick_23">
     <g id="line2d_45">
      <path d="M 898.180186 640.8 
L 898.180186 86.4 
" clip-path="url(#p892c4a2a8b)" style="fill: none; stroke-dasharray: 0.8,1.32; stroke-dashoffset: 0; stroke: #808080; stroke-width: 0.8"/>
     </g>
     <g id="line2d_46">
      <g>
       <use xlink:href="#m2330615bb6" x="898.180186" y="640.8" style="stroke: #000000; stroke-width: 0.6"/>
      </g>
     </g>
    </g>
    <g id="xtick_24">
     <g id="line2d_47">
      <path d="M 932.495418 640.8 
L 932.495418 86.4 
" clip-path="url(#p892c4a2a8b)" style="fill: none; stroke-dasharray: 0.8,1.32; stroke-dashoffset: 0; stroke: #808080; stroke-width: 0.8"/>
     </g>
     <g id="line2d_48">
      <g>
       <use xlink:href="#m2330615bb6" x="932.495418" y="640.8" style="stroke: #000000; stroke-width: 0.6"/>
      </g>
     </g>
    </g>
    <g id="xtick_25">
     <g id="line2d_49">
      <path d="M 1001.125884 640.8 
L 1001.125884 86.4 
" clip-path="url(#p892c4a2a8b)" style="fill: none; stroke-dasharray: 0.8,1.32; stroke-dashoffset: 0; stroke: #808080; stroke-width: 0.8"/>
     </g>
     <g id="line2d_50">
      <g>
       <use xlink:href="#m2330615bb6" x="1001.125884" y="640.8" style="stroke: #000000; stroke-width: 0.6"/>
      </g>
     </g>
    </g>
    <g id="xtick_26">
     <g id="line2d_51">
      <path d="M 1035.441117 640.8 
L 1035.441117 86.4 
" clip-path="url(#p892c4a2a8b)" style="fill: none; stroke-dasharray: 0.8,1.32; stroke-dashoffset: 0; stroke: #808080; stroke-width: 0.8"/>
     </g>
     <g id="line2d_52">
      <g>
       <use xlink:href="#m2330615bb6" x="1035.441117" y="640.8" style="stroke: #000000; stroke-width: 0.6"/>
      </g>
     </g>
    </g>
    <g id="text_7">
     <!-- Время, с -->
     <g transform="translate(568.011719 669.076563) scale(0.1 -0.1)">
      <defs>
       <path id="DejaVuSans-412" d="M 1259 2228 
L 1259 519 
L 2272 519 
Q 2781 519 3026 730 
Q 3272 941 3272 1375 
Q 3272 1813 3026 2020 
Q 2781 2228 2272 2228 
L 1259 2228 
z
M 1259 4147 
L 1259 2741 
L 2194 2741 
Q 2656 2741 2882 2914 
Q 3109 3088 3109 3444 
Q 3109 3797 2882 3972 
Q 2656 4147 2194 4147 
L 1259 4147 
z
M 628 4666 
L 2241 4666 
Q 2963 4666 3353 4366 
Q 3744 4066 3744 3513 
Q 3744 3084 3544 2831 
Q 3344 2578 2956 2516 
Q 3422 2416 3680 2098 
Q 3938 1781 3938 1306 
Q 3938 681 3513 340 
Q 3088 0 2303 0 
L 628 0 
L 628 4666 
z
" transform="scale(0.015625)"/>
       <path id="DejaVuSans-440" d="M 1159 525 
L 1159 -1331 
L 581 -1331 
L 581 3500 
L 1159 3500 
L 1159 2969 
Q 1341 3281 1617 3432 
Q 1894 3584 2278 3584 
Q 2916 3584 3314 3078 
Q 3713 2572 3713 1747 
Q 3713 922 3314 415 
Q 2916 -91 2278 -91 
Q 1894 -91 1617 61 
Q 1341 213 1159 525 
z
M 3116 1747 
Q 3116 2381 2855 2742 
Q 2594 3103 2138 3103 
Q 1681 3103 1420 2742 
Q 1159 2381 1159 1747 
Q 1159 1113 1420 752 
Q 1681 391 2138 391 
Q 2594 391 2855 752 
Q 3116 1113 3116 1747 
z
" transform="scale(0.015625)"/>
       <path id="DejaVuSans-435" d="M 3597 1894 
L 3597 1613 
L 953 1613 
Q 991 1019 1311 708 
Q 1631 397 2203 397 
Q 2534 397 2845 478 
Q 3156 559 3463 722 
L 3463 178 
Q 3153 47 2828 -22 
Q 2503 -91 2169 -91 
Q 1331 -91 842 396 
Q 353 884 353 1716 
Q 353 2575 817 3079 
Q 1281 3584 2069 3584 
Q 2775 3584 3186 3129 
Q 3597 2675 3597 1894 
z
M 3022 2063 
Q 3016 2534 2758 2815 
Q 2500 3097 2075 3097 
Q 1594 3097 1305 2825 
Q 1016 2553 972 2059 
L 3022 2063 
z
" transform="scale(0.015625)"/>
       <path id="DejaVuSans-43c" d="M 581 3500 
L 1422 3500 
L 2416 1156 
L 3413 3500 
L 4247 3500 
L 4247 0 
L 3669 0 
L 3669 2950 
L 2703 672 
L 2128 672 
L 1159 2950 
L 1159 0 
L 581 0 
L 581 3500 
z
" transform="scale(0.015625)"/>
       <path id="DejaVuSans-44f" d="M 1181 2491 
Q 1181 2231 1381 2084 
Q 1581 1938 1953 1938 
L 2728 1938 
L 2728 3041 
L 1953 3041 
Q 1581 3041 1381 2897 
Q 1181 2753 1181 2491 
z
M 363 0 
L 1431 1534 
Q 1069 1616 828 1830 
Q 588 2044 588 2491 
Q 588 2997 923 3248 
Q 1259 3500 1938 3500 
L 3306 3500 
L 3306 0 
L 2728 0 
L 2728 1478 
L 2013 1478 
L 981 0 
L 363 0 
z
" transform="scale(0.015625)"/>
       <path id="DejaVuSans-2c" d="M 750 794 
L 1409 794 
L 1409 256 
L 897 -744 
L 494 -744 
L 750 256 
L 750 794 
z
" transform="scale(0.015625)"/>
       <path id="DejaVuSans-20" transform="scale(0.015625)"/>
       <path id="DejaVuSans-441" d="M 3122 3366 
L 3122 2828 
Q 2878 2963 2633 3030 
Q 2388 3097 2138 3097 
Q 1578 3097 1268 2742 
Q 959 2388 959 1747 
Q 959 1106 1268 751 
Q 1578 397 2138 397 
Q 2388 397 2633 464 
Q 2878 531 3122 666 
L 3122 134 
Q 2881 22 2623 -34 
Q 2366 -91 2075 -91 
Q 1284 -91 818 406 
Q 353 903 353 1747 
Q 353 2603 823 3093 
Q 1294 3584 2113 3584 
Q 2378 3584 2631 3529 
Q 2884 3475 3122 3366 
z
" transform="scale(0.015625)"/>
      </defs>
      <use xlink:href="#DejaVuSans-412"/>
      <use xlink:href="#DejaVuSans-440" x="68.603516"/>
      <use xlink:href="#DejaVuSans-435" x="132.080078"/>
      <use xlink:href="#DejaVuSans-43c" x="193.603516"/>
      <use xlink:href="#DejaVuSans-44f" x="269.042969"/>
      <use xlink:href="#DejaVuSans-2c" x="329.199219"/>
      <use xlink:href="#DejaVuSans-20" x="360.986328"/>
      <use xlink:href="#DejaVuSans-441" x="392.773438"/>
     </g>
    </g>
   </g>
   <g id="matplotlib.axis_2">
    <g id="ytick_1">
     <g id="line2d_53">
      <path d="M 144 547.509704 
L 1036.8 547.509704 
" clip-path="url(#p892c4a2a8b)" style="fill: none; stroke: #000000; stroke-width: 0.8; stroke-linecap: square"/>
     </g>
     <g id="line2d_54">
      <defs>
       <path id="m8f54fccace" d="M 0 0 
L -3.5 0 
" style="stroke: #000000; stroke-width: 0.8"/>
      </defs>
      <g>
       <use xlink:href="#m8f54fccace" x="144" y="547.509704" style="stroke: #000000; stroke-width: 0.8"/>
      </g>
     </g>
     <g id="text_8">
      <!-- 0.5 -->
      <g transform="translate(121.096875 551.308923) scale(0.1 -0.1)">
       <defs>
        <path id="DejaVuSans-2e" d="M 684 794 
L 1344 794 
L 1344 0 
L 684 0 
L 684 794 
z
" transform="scale(0.015625)"/>
        <path id="DejaVuSans-35" d="M 691 4666 
L 3169 4666 
L 3169 4134 
L 1269 4134 
L 1269 2991 
Q 1406 3038 1543 3061 
Q 1681 3084 1819 3084 
Q 2600 3084 3056 2656 
Q 3513 2228 3513 1497 
Q 3513 744 3044 326 
Q 2575 -91 1722 -91 
Q 1428 -91 1123 -41 
Q 819 9 494 109 
L 494 744 
Q 775 591 1075 516 
Q 1375 441 1709 441 
Q 2250 441 2565 725 
Q 2881 1009 2881 1497 
Q 2881 1984 2565 2268 
Q 2250 2553 1709 2553 
Q 1456 2553 1204 2497 
Q 953 2441 691 2322 
L 691 4666 
z
" transform="scale(0.015625)"/>
       </defs>
       <use xlink:href="#DejaVuSans-30"/>
       <use xlink:href="#DejaVuSans-2e" x="63.623047"/>
       <use xlink:href="#DejaVuSans-35" x="95.410156"/>
      </g>
     </g>
    </g>
    <g id="ytick_2">
     <g id="line2d_55">
      <path d="M 144 452.120853 
L 1036.8 452.120853 
" clip-path="url(#p892c4a2a8b)" style="fill: none; stroke: #000000; stroke-width: 0.8; stroke-linecap: square"/>
     </g>
     <g id="line2d_56">
      <g>
       <use xlink:href="#m8f54fccace" x="144" y="452.120853" style="stroke: #000000; stroke-width: 0.8"/>
      </g>
     </g>
     <g id="text_9">
      <!-- 1.0 -->
      <g transform="translate(121.096875 455.920072) scale(0.1 -0.1)">
       <use xlink:href="#DejaVuSans-31"/>
       <use xlink:href="#DejaVuSans-2e" x="63.623047"/>
       <use xlink:href="#DejaVuSans-30" x="95.410156"/>
      </g>
     </g>
    </g>
    <g id="ytick_3">
     <g id="line2d_57">
      <path d="M 144 356.732003 
L 1036.8 356.732003 
" clip-path="url(#p892c4a2a8b)" style="fill: none; stroke: #000000; stroke-width: 0.8; stroke-linecap: square"/>
     </g>
     <g id="line2d_58">
      <g>
       <use xlink:href="#m8f54fccace" x="144" y="356.732003" style="stroke: #000000; stroke-width: 0.8"/>
      </g>
     </g>
     <g id="text_10">
      <!-- 1.5 -->
      <g transform="translate(121.096875 360.531222) scale(0.1 -0.1)">
       <use xlink:href="#DejaVuSans-31"/>
       <use xlink:href="#DejaVuSans-2e" x="63.623047"/>
       <use xlink:href="#DejaVuSans-35" x="95.410156"/>
      </g>
     </g>
    </g>
    <g id="ytick_4">
     <g id="line2d_59">
      <path d="M 144 261.343152 
L 1036.8 261.343152 
" clip-path="url(#p892c4a2a8b)" style="fill: none; stroke: #000000; stroke-width: 0.8; stroke-linecap: square"/>
     </g>
     <g id="line2d_60">
      <g>
       <use xlink:href="#m8f54fccace" x="144" y="261.343152" style="stroke: #000000; stroke-width: 0.8"/>
      </g>
     </g>
     <g id="text_11">
      <!-- 2.0 -->
      <g transform="translate(121.096875 265.142371) scale(0.1 -0.1)">
       <use xlink:href="#DejaVuSans-32"/>
       <use xlink:href="#DejaVuSans-2e" x="63.623047"/>
       <use xlink:href="#DejaVuSans-30" x="95.410156"/>
      </g>
     </g>
    </g>
    <g id="ytick_5">
     <g id="line2d_61">
      <path d="M 144 165.954301 
L 1036.8 165.954301 
" clip-path="url(#p892c4a2a8b)" style="fill: none; stroke: #000000; stroke-width: 0.8; stroke-linecap: square"/>
     </g>
     <g id="line2d_62">
      <g>
       <use xlink:href="#m8f54fccace" x="144" y="165.954301" style="stroke: #000000; stroke-width: 0.8"/>
      </g>
     </g>
     <g id="text_12">
      <!-- 2.5 -->
      <g transform="translate(121.096875 169.75352) scale(0.1 -0.1)">
       <use xlink:href="#DejaVuSans-32"/>
       <use xlink:href="#DejaVuSans-2e" x="63.623047"/>
       <use xlink:href="#DejaVuSans-35" x="95.410156"/>
      </g>
     </g>
    </g>
    <g id="ytick_6">
     <g id="line2d_63">
      <path d="M 144 623.820785 
L 1036.8 623.820785 
" clip-path="url(#p892c4a2a8b)" style="fill: none; stroke-dasharray: 0.8,1.32; stroke-dashoffset: 0; stroke: #808080; stroke-width: 0.8"/>
     </g>
     <g id="line2d_64">
      <defs>
       <path id="m39fd523091" d="M 0 0 
L -2 0 
" style="stroke: #000000; stroke-width: 0.6"/>
      </defs>
      <g>
       <use xlink:href="#m39fd523091" x="144" y="623.820785" style="stroke: #000000; stroke-width: 0.6"/>
      </g>
     </g>
    </g>
    <g id="ytick_7">
     <g id="line2d_65">
      <path d="M 144 604.743014 
L 1036.8 604.743014 
" clip-path="url(#p892c4a2a8b)" style="fill: none; stroke-dasharray: 0.8,1.32; stroke-dashoffset: 0; stroke: #808080; stroke-width: 0.8"/>
     </g>
     <g id="line2d_66">
      <g>
       <use xlink:href="#m39fd523091" x="144" y="604.743014" style="stroke: #000000; stroke-width: 0.6"/>
      </g>
     </g>
    </g>
    <g id="ytick_8">
     <g id="line2d_67">
      <path d="M 144 585.665244 
L 1036.8 585.665244 
" clip-path="url(#p892c4a2a8b)" style="fill: none; stroke-dasharray: 0.8,1.32; stroke-dashoffset: 0; stroke: #808080; stroke-width: 0.8"/>
     </g>
     <g id="line2d_68">
      <g>
       <use xlink:href="#m39fd523091" x="144" y="585.665244" style="stroke: #000000; stroke-width: 0.6"/>
      </g>
     </g>
    </g>
    <g id="ytick_9">
     <g id="line2d_69">
      <path d="M 144 566.587474 
L 1036.8 566.587474 
" clip-path="url(#p892c4a2a8b)" style="fill: none; stroke-dasharray: 0.8,1.32; stroke-dashoffset: 0; stroke: #808080; stroke-width: 0.8"/>
     </g>
     <g id="line2d_70">
      <g>
       <use xlink:href="#m39fd523091" x="144" y="566.587474" style="stroke: #000000; stroke-width: 0.6"/>
      </g>
     </g>
    </g>
    <g id="ytick_10">
     <g id="line2d_71">
      <path d="M 144 528.431934 
L 1036.8 528.431934 
" clip-path="url(#p892c4a2a8b)" style="fill: none; stroke-dasharray: 0.8,1.32; stroke-dashoffset: 0; stroke: #808080; stroke-width: 0.8"/>
     </g>
     <g id="line2d_72">
      <g>
       <use xlink:href="#m39fd523091" x="144" y="528.431934" style="stroke: #000000; stroke-width: 0.6"/>
      </g>
     </g>
    </g>
    <g id="ytick_11">
     <g id="line2d_73">
      <path d="M 144 509.354164 
L 1036.8 509.354164 
" clip-path="url(#p892c4a2a8b)" style="fill: none; stroke-dasharray: 0.8,1.32; stroke-dashoffset: 0; stroke: #808080; stroke-width: 0.8"/>
     </g>
     <g id="line2d_74">
      <g>
       <use xlink:href="#m39fd523091" x="144" y="509.354164" style="stroke: #000000; stroke-width: 0.6"/>
      </g>
     </g>
    </g>
    <g id="ytick_12">
     <g id="line2d_75">
      <path d="M 144 490.276394 
L 1036.8 490.276394 
" clip-path="url(#p892c4a2a8b)" style="fill: none; stroke-dasharray: 0.8,1.32; stroke-dashoffset: 0; stroke: #808080; stroke-width: 0.8"/>
     </g>
     <g id="line2d_76">
      <g>
       <use xlink:href="#m39fd523091" x="144" y="490.276394" style="stroke: #000000; stroke-width: 0.6"/>
      </g>
     </g>
    </g>
    <g id="ytick_13">
     <g id="line2d_77">
      <path d="M 144 471.198624 
L 1036.8 471.198624 
" clip-path="url(#p892c4a2a8b)" style="fill: none; stroke-dasharray: 0.8,1.32; stroke-dashoffset: 0; stroke: #808080; stroke-width: 0.8"/>
     </g>
     <g id="line2d_78">
      <g>
       <use xlink:href="#m39fd523091" x="144" y="471.198624" style="stroke: #000000; stroke-width: 0.6"/>
      </g>
     </g>
    </g>
    <g id="ytick_14">
     <g id="line2d_79">
      <path d="M 144 433.043083 
L 1036.8 433.043083 
" clip-path="url(#p892c4a2a8b)" style="fill: none; stroke-dasharray: 0.8,1.32; stroke-dashoffset: 0; stroke: #808080; stroke-width: 0.8"/>
     </g>
     <g id="line2d_80">
      <g>
       <use xlink:href="#m39fd523091" x="144" y="433.043083" style="stroke: #000000; stroke-width: 0.6"/>
      </g>
     </g>
    </g>
    <g id="ytick_15">
     <g id="line2d_81">
      <path d="M 144 413.965313 
L 1036.8 413.965313 
" clip-path="url(#p892c4a2a8b)" style="fill: none; stroke-dasharray: 0.8,1.32; stroke-dashoffset: 0; stroke: #808080; stroke-width: 0.8"/>
     </g>
     <g id="line2d_82">
      <g>
       <use xlink:href="#m39fd523091" x="144" y="413.965313" style="stroke: #000000; stroke-width: 0.6"/>
      </g>
     </g>
    </g>
    <g id="ytick_16">
     <g id="line2d_83">
      <path d="M 144 394.887543 
L 1036.8 394.887543 
" clip-path="url(#p892c4a2a8b)" style="fill: none; stroke-dasharray: 0.8,1.32; stroke-dashoffset: 0; stroke: #808080; stroke-width: 0.8"/>
     </g>
     <g id="line2d_84">
      <g>
       <use xlink:href="#m39fd523091" x="144" y="394.887543" style="stroke: #000000; stroke-width: 0.6"/>
      </g>
     </g>
    </g>
    <g id="ytick_17">
     <g id="line2d_85">
      <path d="M 144 375.809773 
L 1036.8 375.809773 
" clip-path="url(#p892c4a2a8b)" style="fill: none; stroke-dasharray: 0.8,1.32; stroke-dashoffset: 0; stroke: #808080; stroke-width: 0.8"/>
     </g>
     <g id="line2d_86">
      <g>
       <use xlink:href="#m39fd523091" x="144" y="375.809773" style="stroke: #000000; stroke-width: 0.6"/>
      </g>
     </g>
    </g>
    <g id="ytick_18">
     <g id="line2d_87">
      <path d="M 144 337.654233 
L 1036.8 337.654233 
" clip-path="url(#p892c4a2a8b)" style="fill: none; stroke-dasharray: 0.8,1.32; stroke-dashoffset: 0; stroke: #808080; stroke-width: 0.8"/>
     </g>
     <g id="line2d_88">
      <g>
       <use xlink:href="#m39fd523091" x="144" y="337.654233" style="stroke: #000000; stroke-width: 0.6"/>
      </g>
     </g>
    </g>
    <g id="ytick_19">
     <g id="line2d_89">
      <path d="M 144 318.576462 
L 1036.8 318.576462 
" clip-path="url(#p892c4a2a8b)" style="fill: none; stroke-dasharray: 0.8,1.32; stroke-dashoffset: 0; stroke: #808080; stroke-width: 0.8"/>
     </g>
     <g id="line2d_90">
      <g>
       <use xlink:href="#m39fd523091" x="144" y="318.576462" style="stroke: #000000; stroke-width: 0.6"/>
      </g>
     </g>
    </g>
    <g id="ytick_20">
     <g id="line2d_91">
      <path d="M 144 299.498692 
L 1036.8 299.498692 
" clip-path="url(#p892c4a2a8b)" style="fill: none; stroke-dasharray: 0.8,1.32; stroke-dashoffset: 0; stroke: #808080; stroke-width: 0.8"/>
     </g>
     <g id="line2d_92">
      <g>
       <use xlink:href="#m39fd523091" x="144" y="299.498692" style="stroke: #000000; stroke-width: 0.6"/>
      </g>
     </g>
    </g>
    <g id="ytick_21">
     <g id="line2d_93">
      <path d="M 144 280.420922 
L 1036.8 280.420922 
" clip-path="url(#p892c4a2a8b)" style="fill: none; stroke-dasharray: 0.8,1.32; stroke-dashoffset: 0; stroke: #808080; stroke-width: 0.8"/>
     </g>
     <g id="line2d_94">
      <g>
       <use xlink:href="#m39fd523091" x="144" y="280.420922" style="stroke: #000000; stroke-width: 0.6"/>
      </g>
     </g>
    </g>
    <g id="ytick_22">
     <g id="line2d_95">
      <path d="M 144 242.265382 
L 1036.8 242.265382 
" clip-path="url(#p892c4a2a8b)" style="fill: none; stroke-dasharray: 0.8,1.32; stroke-dashoffset: 0; stroke: #808080; stroke-width: 0.8"/>
     </g>
     <g id="line2d_96">
      <g>
       <use xlink:href="#m39fd523091" x="144" y="242.265382" style="stroke: #000000; stroke-width: 0.6"/>
      </g>
     </g>
    </g>
    <g id="ytick_23">
     <g id="line2d_97">
      <path d="M 144 223.187612 
L 1036.8 223.187612 
" clip-path="url(#p892c4a2a8b)" style="fill: none; stroke-dasharray: 0.8,1.32; stroke-dashoffset: 0; stroke: #808080; stroke-width: 0.8"/>
     </g>
     <g id="line2d_98">
      <g>
       <use xlink:href="#m39fd523091" x="144" y="223.187612" style="stroke: #000000; stroke-width: 0.6"/>
      </g>
     </g>
    </g>
    <g id="ytick_24">
     <g id="line2d_99">
      <path d="M 144 204.109842 
L 1036.8 204.109842 
" clip-path="url(#p892c4a2a8b)" style="fill: none; stroke-dasharray: 0.8,1.32; stroke-dashoffset: 0; stroke: #808080; stroke-width: 0.8"/>
     </g>
     <g id="line2d_100">
      <g>
       <use xlink:href="#m39fd523091" x="144" y="204.109842" style="stroke: #000000; stroke-width: 0.6"/>
      </g>
     </g>
    </g>
    <g id="ytick_25">
     <g id="line2d_101">
      <path d="M 144 185.032072 
L 1036.8 185.032072 
" clip-path="url(#p892c4a2a8b)" style="fill: none; stroke-dasharray: 0.8,1.32; stroke-dashoffset: 0; stroke: #808080; stroke-width: 0.8"/>
     </g>
     <g id="line2d_102">
      <g>
       <use xlink:href="#m39fd523091" x="144" y="185.032072" style="stroke: #000000; stroke-width: 0.6"/>
      </g>
     </g>
    </g>
    <g id="ytick_26">
     <g id="line2d_103">
      <path d="M 144 146.876531 
L 1036.8 146.876531 
" clip-path="url(#p892c4a2a8b)" style="fill: none; stroke-dasharray: 0.8,1.32; stroke-dashoffset: 0; stroke: #808080; stroke-width: 0.8"/>
     </g>
     <g id="line2d_104">
      <g>
       <use xlink:href="#m39fd523091" x="144" y="146.876531" style="stroke: #000000; stroke-width: 0.6"/>
      </g>
     </g>
    </g>
    <g id="ytick_27">
     <g id="line2d_105">
      <path d="M 144 127.798761 
L 1036.8 127.798761 
" clip-path="url(#p892c4a2a8b)" style="fill: none; stroke-dasharray: 0.8,1.32; stroke-dashoffset: 0; stroke: #808080; stroke-width: 0.8"/>
     </g>
     <g id="line2d_106">
      <g>
       <use xlink:href="#m39fd523091" x="144" y="127.798761" style="stroke: #000000; stroke-width: 0.6"/>
      </g>
     </g>
    </g>
    <g id="ytick_28">
     <g id="line2d_107">
      <path d="M 144 108.720991 
L 1036.8 108.720991 
" clip-path="url(#p892c4a2a8b)" style="fill: none; stroke-dasharray: 0.8,1.32; stroke-dashoffset: 0; stroke: #808080; stroke-width: 0.8"/>
     </g>
     <g id="line2d_108">
      <g>
       <use xlink:href="#m39fd523091" x="144" y="108.720991" style="stroke: #000000; stroke-width: 0.6"/>
      </g>
     </g>
    </g>
    <g id="ytick_29">
     <g id="line2d_109">
      <path d="M 144 89.643221 
L 1036.8 89.643221 
" clip-path="url(#p892c4a2a8b)" style="fill: none; stroke-dasharray: 0.8,1.32; stroke-dashoffset: 0; stroke: #808080; stroke-width: 0.8"/>
     </g>
     <g id="line2d_110">
      <g>
       <use xlink:href="#m39fd523091" x="144" y="89.643221" style="stroke: #000000; stroke-width: 0.6"/>
      </g>
     </g>
    </g>
    <g id="text_13">
     <!-- Напряжение, В -->
     <g transform="translate(115.017187 403.659375) rotate(-90) scale(0.1 -0.1)">
      <defs>
       <path id="DejaVuSans-41d" d="M 628 4666 
L 1259 4666 
L 1259 2753 
L 3553 2753 
L 3553 4666 
L 4184 4666 
L 4184 0 
L 3553 0 
L 3553 2222 
L 1259 2222 
L 1259 0 
L 628 0 
L 628 4666 
z
" transform="scale(0.015625)"/>
       <path id="DejaVuSans-430" d="M 2194 1759 
Q 1497 1759 1228 1600 
Q 959 1441 959 1056 
Q 959 750 1161 570 
Q 1363 391 1709 391 
Q 2188 391 2477 730 
Q 2766 1069 2766 1631 
L 2766 1759 
L 2194 1759 
z
M 3341 1997 
L 3341 0 
L 2766 0 
L 2766 531 
Q 2569 213 2275 61 
Q 1981 -91 1556 -91 
Q 1019 -91 701 211 
Q 384 513 384 1019 
Q 384 1609 779 1909 
Q 1175 2209 1959 2209 
L 2766 2209 
L 2766 2266 
Q 2766 2663 2505 2880 
Q 2244 3097 1772 3097 
Q 1472 3097 1187 3025 
Q 903 2953 641 2809 
L 641 3341 
Q 956 3463 1253 3523 
Q 1550 3584 1831 3584 
Q 2591 3584 2966 3190 
Q 3341 2797 3341 1997 
z
" transform="scale(0.015625)"/>
       <path id="DejaVuSans-43f" d="M 3603 3500 
L 3603 0 
L 3025 0 
L 3025 3041 
L 1159 3041 
L 1159 0 
L 581 0 
L 581 3500 
L 3603 3500 
z
" transform="scale(0.015625)"/>
       <path id="DejaVuSans-436" d="M 2597 3500 
L 3169 3500 
L 3169 1856 
L 4697 3500 
L 5366 3500 
L 4109 2153 
L 5547 0 
L 4931 0 
L 3753 1769 
L 3169 1141 
L 3169 0 
L 2597 0 
L 2597 1141 
L 2013 1769 
L 834 0 
L 219 0 
L 1656 2153 
L 400 3500 
L 1069 3500 
L 2597 1856 
L 2597 3500 
z
" transform="scale(0.015625)"/>
       <path id="DejaVuSans-43d" d="M 581 3500 
L 1159 3500 
L 1159 2072 
L 3025 2072 
L 3025 3500 
L 3603 3500 
L 3603 0 
L 3025 0 
L 3025 1613 
L 1159 1613 
L 1159 0 
L 581 0 
L 581 3500 
z
" transform="scale(0.015625)"/>
       <path id="DejaVuSans-438" d="M 3578 3500 
L 3578 0 
L 3006 0 
L 3006 2809 
L 1319 0 
L 581 0 
L 581 3500 
L 1153 3500 
L 1153 697 
L 2838 3500 
L 3578 3500 
z
" transform="scale(0.015625)"/>
      </defs>
      <use xlink:href="#DejaVuSans-41d"/>
      <use xlink:href="#DejaVuSans-430" x="75.195312"/>
      <use xlink:href="#DejaVuSans-43f" x="136.474609"/>
      <use xlink:href="#DejaVuSans-440" x="201.855469"/>
      <use xlink:href="#DejaVuSans-44f" x="265.332031"/>
      <use xlink:href="#DejaVuSans-436" x="325.488281"/>
      <use xlink:href="#DejaVuSans-435" x="415.576172"/>
      <use xlink:href="#DejaVuSans-43d" x="477.099609"/>
      <use xlink:href="#DejaVuSans-438" x="542.480469"/>
      <use xlink:href="#DejaVuSans-435" x="607.470703"/>
      <use xlink:href="#DejaVuSans-2c" x="668.994141"/>
      <use xlink:href="#DejaVuSans-20" x="700.78125"/>
      <use xlink:href="#DejaVuSans-412" x="732.568359"/>
     </g>
    </g>
   </g>
   <g id="line2d_111">
    <path d="M 143.245065 640.8 
L 144.164713 632.405781 
L 146.923658 619.814453 
L 147.843306 611.420234 
L 149.682603 603.026015 
L 150.602251 594.631796 
L 151.521899 594.631796 
L 152.441547 586.237577 
L 153.361195 586.237577 
L 154.280844 577.843359 
L 155.200492 577.843359 
L 156.12014 565.25203 
L 168.075567 510.689608 
L 168.995216 510.689608 
L 169.914864 502.295389 
L 173.593457 485.506951 
L 174.513105 485.506951 
L 175.432753 477.112732 
L 176.352401 477.112732 
L 183.709587 443.535857 
L 184.629236 443.535857 
L 188.307829 426.747419 
L 189.227477 426.747419 
L 192.90607 409.958981 
L 193.825718 409.958981 
L 195.665014 401.564763 
L 196.584663 401.564763 
L 198.423959 393.170544 
L 199.343607 393.170544 
L 201.182904 384.776325 
L 202.102552 384.776325 
L 203.941849 376.382106 
L 205.781145 376.382106 
L 206.700793 367.987887 
L 207.620442 367.987887 
L 208.54009 363.790778 
L 209.459738 363.790778 
L 211.299034 355.396559 
L 212.218683 355.396559 
L 213.138331 351.199449 
L 214.057979 351.199449 
L 215.897276 342.805231 
L 217.736572 342.805231 
L 219.575869 334.411012 
L 221.415165 334.411012 
L 223.254462 326.016793 
L 224.17411 326.016793 
L 225.093758 321.819683 
L 226.013406 321.819683 
L 226.933055 317.622574 
L 227.852703 317.622574 
L 228.772351 313.425465 
L 229.691999 313.425465 
L 230.611648 309.228355 
L 233.370592 309.228355 
L 234.29024 300.834136 
L 236.129537 300.834136 
L 237.049185 296.637027 
L 237.968833 296.637027 
L 238.888482 292.439917 
L 240.727778 292.439917 
L 241.647426 288.242808 
L 242.567075 288.242808 
L 243.486723 284.045699 
L 244.406371 284.045699 
L 245.326019 279.848589 
L 248.084964 279.848589 
L 249.924261 271.45437 
L 251.763557 271.45437 
L 252.683205 267.257261 
L 254.522502 267.257261 
L 255.44215 263.060151 
L 256.361798 263.060151 
L 257.281446 258.863042 
L 260.040391 258.863042 
L 260.960039 254.665933 
L 261.879688 254.665933 
L 262.799336 250.468823 
L 264.638632 250.468823 
L 265.558281 246.271714 
L 268.317225 246.271714 
L 270.156522 237.877495 
L 275.674411 237.877495 
L 277.513708 229.483276 
L 281.192301 229.483276 
L 282.111949 225.286167 
L 284.870894 225.286167 
L 285.790542 221.089057 
L 287.629838 221.089057 
L 288.549487 216.891948 
L 290.388783 216.891948 
L 291.308431 212.694838 
L 294.987024 212.694838 
L 295.906672 208.497729 
L 299.585265 208.497729 
L 300.504914 204.300619 
L 304.183507 204.300619 
L 305.103155 200.10351 
L 308.781748 200.10351 
L 309.701396 195.906401 
L 311.540692 195.906401 
L 312.460341 191.709291 
L 313.379989 195.906401 
L 314.299637 191.709291 
L 317.058582 191.709291 
L 317.97823 187.512182 
L 324.415768 187.512182 
L 325.335416 183.315072 
L 329.933657 183.315072 
L 330.853305 179.117963 
L 335.451547 179.117963 
L 336.371195 174.920853 
L 340.049788 174.920853 
L 340.969436 170.723744 
L 351.085567 170.723744 
L 352.005215 166.526635 
L 359.362401 166.526635 
L 360.282049 162.329525 
L 361.201697 166.526635 
L 362.121346 162.329525 
L 366.719587 162.329525 
L 367.639235 158.132416 
L 368.558883 162.329525 
L 369.478531 158.132416 
L 377.755366 158.132416 
L 378.675014 153.935306 
L 386.951848 153.935306 
L 387.871496 149.738197 
L 396.14833 149.738197 
L 397.067979 145.541087 
L 397.987627 149.738197 
L 398.907275 149.738197 
L 399.826923 145.541087 
L 408.103757 145.541087 
L 409.023406 141.343978 
L 409.943054 145.541087 
L 410.862702 145.541087 
L 411.78235 141.343978 
L 412.701999 145.541087 
L 413.621647 145.541087 
L 414.541295 141.343978 
L 421.898481 141.343978 
L 422.818129 137.146869 
L 423.737778 141.343978 
L 424.657426 141.343978 
L 425.577074 137.146869 
L 426.496722 137.146869 
L 427.41637 141.343978 
L 430.175315 141.343978 
L 431.094963 137.146869 
L 448.56828 137.146869 
L 449.487928 132.949759 
L 450.407576 137.146869 
L 451.327225 132.949759 
L 471.559486 132.949759 
L 472.479134 128.75265 
L 473.398782 128.75265 
L 474.318431 132.949759 
L 475.238079 132.949759 
L 476.157727 128.75265 
L 477.077375 128.75265 
L 477.997024 132.949759 
L 478.916672 128.75265 
L 494.550692 128.75265 
L 495.47034 124.55554 
L 496.389988 132.949759 
L 497.309637 137.146869 
L 498.229285 137.146869 
L 499.148933 145.541087 
L 500.98823 153.935306 
L 501.907878 162.329525 
L 502.827526 162.329525 
L 503.747174 170.723744 
L 504.666822 170.723744 
L 505.586471 179.117963 
L 507.425767 187.512182 
L 508.345415 187.512182 
L 509.265064 195.906401 
L 510.184712 195.906401 
L 519.381194 237.877495 
L 520.300843 237.877495 
L 524.899084 258.863042 
L 525.818732 258.863042 
L 526.73838 267.257261 
L 527.658028 267.257261 
L 528.577677 271.45437 
L 529.497325 271.45437 
L 534.095566 292.439917 
L 535.015214 292.439917 
L 538.693807 309.228355 
L 539.613456 309.228355 
L 541.452752 317.622574 
L 542.3724 317.622574 
L 543.292048 321.819683 
L 544.211697 321.819683 
L 546.970641 334.411012 
L 547.89029 334.411012 
L 548.809938 338.608121 
L 549.729586 338.608121 
L 551.568883 347.00234 
L 552.488531 347.00234 
L 554.327827 355.396559 
L 555.247476 355.396559 
L 556.167124 359.593668 
L 557.086772 359.593668 
L 558.00642 363.790778 
L 558.926069 363.790778 
L 559.845717 367.987887 
L 560.765365 367.987887 
L 561.685013 372.184997 
L 562.604661 372.184997 
L 563.52431 376.382106 
L 564.443958 376.382106 
L 565.363606 380.579215 
L 566.283254 380.579215 
L 568.122551 388.973434 
L 569.961847 388.973434 
L 570.881496 393.170544 
L 571.801144 393.170544 
L 572.720792 397.367653 
L 573.64044 397.367653 
L 575.479737 405.761872 
L 577.319033 405.761872 
L 578.238682 409.958981 
L 579.15833 409.958981 
L 580.077978 414.156091 
L 580.997626 414.156091 
L 581.917274 418.3532 
L 582.836923 418.3532 
L 583.756571 422.55031 
L 585.595867 422.55031 
L 586.515516 426.747419 
L 587.435164 426.747419 
L 588.354812 430.944529 
L 589.27446 430.944529 
L 590.194109 435.141638 
L 591.113757 435.141638 
L 592.033405 439.338747 
L 594.79235 439.338747 
L 596.631646 447.732966 
L 598.470943 447.732966 
L 599.390591 451.930076 
L 600.310239 451.930076 
L 601.229887 456.127185 
L 603.988832 456.127185 
L 604.90848 460.324295 
L 605.828129 460.324295 
L 606.747777 464.521404 
L 608.587073 464.521404 
L 609.506722 468.718513 
L 610.42637 468.718513 
L 611.346018 472.915623 
L 613.185315 472.915623 
L 614.104963 477.112732 
L 616.863908 477.112732 
L 617.783556 481.309842 
L 619.622852 481.309842 
L 620.5425 485.506951 
L 622.381797 485.506951 
L 623.301445 489.704061 
L 626.06039 489.704061 
L 626.980038 493.90117 
L 627.899686 493.90117 
L 628.819335 498.098279 
L 631.578279 498.098279 
L 632.497928 502.295389 
L 634.337224 502.295389 
L 635.256872 506.492498 
L 636.176521 506.492498 
L 637.096169 510.689608 
L 642.614058 510.689608 
L 643.533706 514.886717 
L 645.373003 514.886717 
L 646.292651 519.083827 
L 648.131948 519.083827 
L 649.051596 523.280936 
L 652.730189 523.280936 
L 653.649837 527.478045 
L 656.408782 527.478045 
L 657.32843 531.675155 
L 659.167726 531.675155 
L 660.087375 535.872264 
L 663.765968 535.872264 
L 664.685616 540.069374 
L 668.364209 540.069374 
L 669.283857 544.266483 
L 670.203505 540.069374 
L 671.123154 544.266483 
L 672.96245 544.266483 
L 673.882098 548.463593 
L 677.560691 548.463593 
L 678.480339 552.660702 
L 682.158932 552.660702 
L 683.078581 556.857811 
L 686.757174 556.857811 
L 687.676822 561.054921 
L 693.194711 561.054921 
L 694.11436 565.25203 
L 697.792952 565.25203 
L 698.712601 569.44914 
L 702.391194 569.44914 
L 703.310842 573.646249 
L 704.23049 569.44914 
L 705.150138 573.646249 
L 707.909083 573.646249 
L 708.828731 577.843359 
L 718.025214 577.843359 
L 718.944862 582.040468 
L 725.3824 582.040468 
L 726.302048 586.237577 
L 730.900289 586.237577 
L 731.819937 590.434687 
L 740.096771 590.434687 
L 741.01642 594.631796 
L 750.212902 594.631796 
L 751.13255 598.828906 
L 758.489736 598.828906 
L 759.409384 603.026015 
L 760.329033 598.828906 
L 761.248681 603.026015 
L 771.364812 603.026015 
L 772.28446 607.223125 
L 780.561294 607.223125 
L 781.480942 611.420234 
L 796.195314 611.420234 
L 797.114962 615.617343 
L 811.829334 615.617343 
L 812.748982 619.814453 
L 813.66863 615.617343 
L 814.588279 619.814453 
L 829.302651 619.814453 
L 830.222299 624.011562 
L 849.534912 624.011562 
L 850.45456 628.208672 
L 851.374208 624.011562 
L 854.133153 624.011562 
L 855.052801 628.208672 
L 855.972449 628.208672 
L 856.892098 624.011562 
L 857.811746 628.208672 
L 876.204711 628.208672 
L 877.124359 632.405781 
L 878.044007 628.208672 
L 885.401193 628.208672 
L 886.320841 632.405781 
L 888.160138 632.405781 
L 889.079786 628.208672 
L 889.999434 632.405781 
L 914.829937 632.405781 
L 915.749585 636.602891 
L 916.669233 632.405781 
L 918.50853 632.405781 
L 919.428178 636.602891 
L 967.249886 636.602891 
L 968.169534 640.8 
L 968.169534 640.8 
" clip-path="url(#p892c4a2a8b)" style="fill: none; stroke: #0000ff; stroke-linecap: square"/>
   </g>
   <g id="patch_3">
    <path d="M 144 640.8 
L 144 86.4 
" style="fill: none; stroke: #000000; stroke-width: 0.8; stroke-linejoin: miter; stroke-linecap: square"/>
   </g>
   <g id="patch_4">
    <path d="M 1036.8 640.8 
L 1036.8 86.4 
" style="fill: none; stroke: #000000; stroke-width: 0.8; stroke-linejoin: miter; stroke-linecap: square"/>
   </g>
   <g id="patch_5">
    <path d="M 144 640.8 
L 1036.8 640.8 
" style="fill: none; stroke: #000000; stroke-width: 0.8; stroke-linejoin: miter; stroke-linecap: square"/>
   </g>
   <g id="patch_6">
    <path d="M 144 86.4 
L 1036.8 86.4 
" style="fill: none; stroke: #000000; stroke-width: 0.8; stroke-linejoin: miter; stroke-linecap: square"/>
   </g>
   <g id="text_14">
    <!-- $Время \; разрядки \approx 6.9 \;с $ -->
    <g transform="translate(760.919255 261.343152) scale(0.18 -0.18)">
     <defs>
      <path id="DejaVuSans-Oblique-412" d="M 1081 4666 
L 2694 4666 
Q 3350 4666 3675 4422 
Q 4000 4178 4000 3688 
Q 4000 3238 3720 2911 
Q 3441 2584 2988 2516 
Q 3375 2428 3569 2181 
Q 3763 1934 3763 1522 
Q 3763 819 3242 409 
Q 2722 0 1819 0 
L 172 0 
L 1081 4666 
z
M 1234 2228 
L 903 519 
L 1919 519 
Q 2491 519 2800 781 
Q 3109 1044 3109 1522 
Q 3109 1891 2904 2059 
Q 2700 2228 2247 2228 
L 1234 2228 
z
M 1606 4147 
L 1331 2741 
L 2272 2741 
Q 2775 2741 3058 2959 
Q 3341 3178 3341 3566 
Q 3341 3869 3150 4008 
Q 2959 4147 2541 4147 
L 1606 4147 
z
" transform="scale(0.015625)"/>
      <path id="DejaVuSans-Oblique-440" d="M 3175 2156 
Q 3175 2616 2975 2859 
Q 2775 3103 2400 3103 
Q 2144 3103 1911 2972 
Q 1678 2841 1497 2591 
Q 1319 2344 1212 1994 
Q 1106 1644 1106 1300 
Q 1106 863 1306 627 
Q 1506 391 1875 391 
Q 2147 391 2380 519 
Q 2613 647 2778 891 
Q 2956 1147 3065 1494 
Q 3175 1841 3175 2156 
z
M 1394 2969 
Q 1625 3272 1939 3428 
Q 2253 3584 2638 3584 
Q 3175 3584 3472 3232 
Q 3769 2881 3769 2247 
Q 3769 1728 3584 1258 
Q 3400 788 3053 416 
Q 2822 169 2531 39 
Q 2241 -91 1919 -91 
Q 1547 -91 1294 64 
Q 1041 219 916 525 
L 556 -1331 
L -19 -1331 
L 922 3500 
L 1497 3500 
L 1394 2969 
z
" transform="scale(0.015625)"/>
      <path id="DejaVuSans-Oblique-435" d="M 3078 2063 
Q 3088 2113 3092 2166 
Q 3097 2219 3097 2272 
Q 3097 2653 2873 2875 
Q 2650 3097 2266 3097 
Q 1838 3097 1509 2826 
Q 1181 2556 1013 2059 
L 3078 2063 
z
M 3578 1613 
L 903 1613 
Q 884 1494 878 1425 
Q 872 1356 872 1306 
Q 872 872 1139 634 
Q 1406 397 1894 397 
Q 2269 397 2603 481 
Q 2938 566 3225 728 
L 3116 159 
Q 2806 34 2476 -28 
Q 2147 -91 1806 -91 
Q 1078 -91 686 257 
Q 294 606 294 1247 
Q 294 1794 489 2264 
Q 684 2734 1063 3103 
Q 1306 3334 1642 3459 
Q 1978 3584 2356 3584 
Q 2950 3584 3301 3228 
Q 3653 2872 3653 2272 
Q 3653 2128 3634 1964 
Q 3616 1800 3578 1613 
z
" transform="scale(0.015625)"/>
      <path id="DejaVuSans-Oblique-43c" d="M 922 3500 
L 1763 3500 
L 2300 1156 
L 3753 3500 
L 4588 3500 
L 3906 0 
L 3328 0 
L 3903 2950 
L 2494 672 
L 1919 672 
L 1394 2950 
L 819 0 
L 241 0 
L 922 3500 
z
" transform="scale(0.015625)"/>
      <path id="DejaVuSans-Oblique-44f" d="M 1603 2897 
Q 1313 2713 1313 2378 
Q 1313 2197 1466 2067 
Q 1619 1938 1991 1938 
L 2766 1938 
L 2978 3041 
L 2203 3041 
Q 1831 3041 1603 2897 
z
M 22 0 
L 1391 1534 
Q 706 1694 706 2241 
Q 706 2356 731 2491 
Q 931 3500 2278 3500 
L 3647 3500 
L 2966 0 
L 2388 0 
L 2675 1478 
L 1959 1478 
L 641 0 
L 22 0 
z
" transform="scale(0.015625)"/>
      <path id="DejaVuSans-Oblique-430" d="M 3438 1997 
L 3047 0 
L 2472 0 
L 2578 531 
Q 2325 219 2001 64 
Q 1678 -91 1281 -91 
Q 834 -91 548 182 
Q 263 456 263 884 
Q 263 1497 752 1853 
Q 1241 2209 2100 2209 
L 2900 2209 
L 2931 2363 
Q 2938 2388 2941 2417 
Q 2944 2447 2944 2509 
Q 2944 2788 2717 2942 
Q 2491 3097 2081 3097 
Q 1800 3097 1504 3025 
Q 1209 2953 897 2809 
L 997 3341 
Q 1322 3463 1633 3523 
Q 1944 3584 2234 3584 
Q 2853 3584 3176 3315 
Q 3500 3047 3500 2534 
Q 3500 2431 3484 2292 
Q 3469 2153 3438 1997 
z
M 2816 1759 
L 2241 1759 
Q 1534 1759 1195 1570 
Q 856 1381 856 984 
Q 856 709 1029 553 
Q 1203 397 1509 397 
Q 1978 397 2328 733 
Q 2678 1069 2791 1631 
L 2816 1759 
z
" transform="scale(0.015625)"/>
      <path id="DejaVuSans-Oblique-437" d="M 1169 2103 
L 1653 2103 
Q 2016 2103 2278 2256 
Q 2541 2409 2541 2666 
Q 2541 2825 2367 2956 
Q 2194 3088 1897 3088 
Q 1366 3088 763 2916 
L 863 3438 
Q 1506 3588 2044 3588 
Q 2578 3588 2851 3369 
Q 3125 3150 3125 2841 
Q 3125 2431 2825 2166 
Q 2597 1963 2234 1888 
Q 2606 1813 2778 1584 
Q 2903 1419 2903 1197 
Q 2903 1113 2884 1019 
Q 2778 478 2320 193 
Q 1863 -91 1119 -91 
Q 622 -91 91 84 
L 197 619 
Q 597 388 1131 388 
Q 1666 388 1997 583 
Q 2328 778 2328 1125 
Q 2328 1328 2148 1478 
Q 1969 1628 1541 1628 
L 1078 1628 
L 1169 2103 
z
" transform="scale(0.015625)"/>
      <path id="DejaVuSans-Oblique-434" d="M 1219 459 
L 2888 459 
L 3391 3041 
L 2181 3041 
L 2097 2603 
Q 1844 1316 1344 628 
L 1219 459 
z
M 384 459 
Q 694 584 872 850 
Q 1306 1509 1563 2838 
L 1691 3500 
L 4056 3500 
L 3466 459 
L 3925 459 
L 3666 -884 
L 3206 -884 
L 3378 0 
L 541 0 
L 369 -884 
L -91 -884 
L 169 459 
L 384 459 
z
" transform="scale(0.015625)"/>
      <path id="DejaVuSans-Oblique-43a" d="M 922 3500 
L 1494 3500 
L 1175 1856 
L 3116 3500 
L 3822 3500 
L 2222 2147 
L 3313 0 
L 2669 0 
L 1772 1766 
L 1034 1141 
L 813 0 
L 241 0 
L 922 3500 
z
" transform="scale(0.015625)"/>
      <path id="DejaVuSans-Oblique-438" d="M 3919 3500 
L 3238 0 
L 2666 0 
L 3213 2809 
L 978 0 
L 241 0 
L 922 3500 
L 1494 3500 
L 947 697 
L 3178 3500 
L 3919 3500 
z
" transform="scale(0.015625)"/>
      <path id="DejaVuSans-2248" d="M 4684 1947 
L 4684 1388 
Q 4356 1144 4076 1036 
Q 3797 928 3494 928 
Q 3150 928 2694 1113 
Q 2663 1125 2641 1134 
Q 2622 1141 2575 1159 
Q 2091 1350 1797 1350 
Q 1522 1350 1253 1231 
Q 984 1113 678 850 
L 678 1409 
Q 1006 1653 1286 1761 
Q 1566 1869 1869 1869 
Q 2213 1869 2672 1684 
Q 2706 1669 2722 1663 
Q 2741 1656 2788 1638 
Q 3272 1447 3566 1447 
Q 3834 1447 4098 1564 
Q 4363 1681 4684 1947 
z
M 4684 3163 
L 4684 2606 
Q 4356 2359 4076 2251 
Q 3797 2144 3494 2144 
Q 3150 2144 2694 2328 
Q 2663 2341 2641 2350 
Q 2622 2356 2575 2375 
Q 2091 2566 1797 2566 
Q 1522 2566 1253 2447 
Q 984 2328 678 2069 
L 678 2625 
Q 1006 2869 1286 2976 
Q 1566 3084 1869 3084 
Q 2213 3084 2672 2900 
Q 2703 2888 2719 2881 
Q 2741 2872 2788 2853 
Q 3272 2663 3566 2663 
Q 3834 2663 4098 2780 
Q 4363 2897 4684 3163 
z
" transform="scale(0.015625)"/>
      <path id="DejaVuSans-39" d="M 703 97 
L 703 672 
Q 941 559 1184 500 
Q 1428 441 1663 441 
Q 2288 441 2617 861 
Q 2947 1281 2994 2138 
Q 2813 1869 2534 1725 
Q 2256 1581 1919 1581 
Q 1219 1581 811 2004 
Q 403 2428 403 3163 
Q 403 3881 828 4315 
Q 1253 4750 1959 4750 
Q 2769 4750 3195 4129 
Q 3622 3509 3622 2328 
Q 3622 1225 3098 567 
Q 2575 -91 1691 -91 
Q 1453 -91 1209 -44 
Q 966 3 703 97 
z
M 1959 2075 
Q 2384 2075 2632 2365 
Q 2881 2656 2881 3163 
Q 2881 3666 2632 3958 
Q 2384 4250 1959 4250 
Q 1534 4250 1286 3958 
Q 1038 3666 1038 3163 
Q 1038 2656 1286 2365 
Q 1534 2075 1959 2075 
z
" transform="scale(0.015625)"/>
      <path id="DejaVuSans-Oblique-441" d="M 3431 3366 
L 3316 2797 
Q 3109 2947 2876 3022 
Q 2644 3097 2394 3097 
Q 2119 3097 1870 3000 
Q 1622 2903 1453 2725 
Q 1184 2453 1037 2087 
Q 891 1722 891 1331 
Q 891 859 1127 628 
Q 1363 397 1844 397 
Q 2081 397 2348 469 
Q 2616 541 2906 684 
L 2797 116 
Q 2547 13 2283 -39 
Q 2019 -91 1741 -91 
Q 1044 -91 669 257 
Q 294 606 294 1253 
Q 294 1797 489 2255 
Q 684 2713 1069 3078 
Q 1331 3328 1684 3456 
Q 2038 3584 2456 3584 
Q 2700 3584 2940 3529 
Q 3181 3475 3431 3366 
z
" transform="scale(0.015625)"/>
     </defs>
     <use xlink:href="#DejaVuSans-Oblique-412" transform="translate(0 0.78125)"/>
     <use xlink:href="#DejaVuSans-Oblique-440" transform="translate(68.603516 0.78125)"/>
     <use xlink:href="#DejaVuSans-Oblique-435" transform="translate(132.080078 0.78125)"/>
     <use xlink:href="#DejaVuSans-Oblique-43c" transform="translate(193.603516 0.78125)"/>
     <use xlink:href="#DejaVuSans-Oblique-44f" transform="translate(269.042969 0.78125)"/>
     <use xlink:href="#DejaVuSans-Oblique-440" transform="translate(356.258354 0.78125)"/>
     <use xlink:href="#DejaVuSans-Oblique-430" transform="translate(419.734917 0.78125)"/>
     <use xlink:href="#DejaVuSans-Oblique-437" transform="translate(481.014214 0.78125)"/>
     <use xlink:href="#DejaVuSans-Oblique-440" transform="translate(534.188042 0.78125)"/>
     <use xlink:href="#DejaVuSans-Oblique-44f" transform="translate(597.664604 0.78125)"/>
     <use xlink:href="#DejaVuSans-Oblique-434" transform="translate(657.820854 0.78125)"/>
     <use xlink:href="#DejaVuSans-Oblique-43a" transform="translate(726.961479 0.78125)"/>
     <use xlink:href="#DejaVuSans-Oblique-438" transform="translate(787.36187 0.78125)"/>
     <use xlink:href="#DejaVuSans-2248" transform="translate(871.834526 0.78125)"/>
     <use xlink:href="#DejaVuSans-36" transform="translate(975.106011 0.78125)"/>
     <use xlink:href="#DejaVuSans-2e" transform="translate(1038.729058 0.78125)"/>
     <use xlink:href="#DejaVuSans-39" transform="translate(1070.516167 0.78125)"/>
     <use xlink:href="#DejaVuSans-Oblique-441" transform="translate(1161.19835 0.78125)"/>
    </g>
   </g>
   <g id="text_15">
    <!-- $Время \; зарядки \approx 5.1 \;с $ -->
    <g transform="translate(760.919255 223.187612) scale(0.18 -0.18)">
     <use xlink:href="#DejaVuSans-Oblique-412" transform="translate(0 0.09375)"/>
     <use xlink:href="#DejaVuSans-Oblique-440" transform="translate(68.603516 0.09375)"/>
     <use xlink:href="#DejaVuSans-Oblique-435" transform="translate(132.080078 0.09375)"/>
     <use xlink:href="#DejaVuSans-Oblique-43c" transform="translate(193.603516 0.09375)"/>
     <use xlink:href="#DejaVuSans-Oblique-44f" transform="translate(269.042969 0.09375)"/>
     <use xlink:href="#DejaVuSans-Oblique-437" transform="translate(356.258354 0.09375)"/>
     <use xlink:href="#DejaVuSans-Oblique-430" transform="translate(409.432183 0.09375)"/>
     <use xlink:href="#DejaVuSans-Oblique-440" transform="translate(470.711479 0.09375)"/>
     <use xlink:href="#DejaVuSans-Oblique-44f" transform="translate(534.188042 0.09375)"/>
     <use xlink:href="#DejaVuSans-Oblique-434" transform="translate(594.344292 0.09375)"/>
     <use xlink:href="#DejaVuSans-Oblique-43a" transform="translate(663.484917 0.09375)"/>
     <use xlink:href="#DejaVuSans-Oblique-438" transform="translate(723.885308 0.09375)"/>
     <use xlink:href="#DejaVuSans-2248" transform="translate(808.357964 0.09375)"/>
     <use xlink:href="#DejaVuSans-35" transform="translate(911.629448 0.09375)"/>
     <use xlink:href="#DejaVuSans-2e" transform="translate(975.252495 0.09375)"/>
     <use xlink:href="#DejaVuSans-31" transform="translate(1007.039604 0.09375)"/>
     <use xlink:href="#DejaVuSans-Oblique-441" transform="translate(1097.721787 0.09375)"/>
    </g>
   </g>
   <g id="text_16">
    <!-- Процесс заряда и разряда конденсатора в RC цепи -->
    <g transform="translate(426.954375 80.4) scale(0.12 -0.12)">
     <defs>
      <path id="DejaVuSans-41f" d="M 4184 4666 
L 4184 0 
L 3553 0 
L 3553 4134 
L 1259 4134 
L 1259 0 
L 628 0 
L 628 4666 
L 4184 4666 
z
" transform="scale(0.015625)"/>
      <path id="DejaVuSans-43e" d="M 1959 3097 
Q 1497 3097 1228 2736 
Q 959 2375 959 1747 
Q 959 1119 1226 758 
Q 1494 397 1959 397 
Q 2419 397 2687 759 
Q 2956 1122 2956 1747 
Q 2956 2369 2687 2733 
Q 2419 3097 1959 3097 
z
M 1959 3584 
Q 2709 3584 3137 3096 
Q 3566 2609 3566 1747 
Q 3566 888 3137 398 
Q 2709 -91 1959 -91 
Q 1206 -91 779 398 
Q 353 888 353 1747 
Q 353 2609 779 3096 
Q 1206 3584 1959 3584 
z
" transform="scale(0.015625)"/>
      <path id="DejaVuSans-446" d="M 3603 0 
L 581 0 
L 581 3500 
L 1159 3500 
L 1159 459 
L 3025 459 
L 3025 3500 
L 3603 3500 
L 3603 459 
L 4063 459 
L 4063 -884 
L 3603 -884 
L 3603 0 
z
" transform="scale(0.015625)"/>
      <path id="DejaVuSans-437" d="M 2206 1888 
Q 2594 1813 2809 1584 
Q 3025 1356 3025 1019 
Q 3025 478 2622 193 
Q 2219 -91 1475 -91 
Q 1225 -91 961 -47 
Q 697 -3 416 84 
L 416 619 
Q 638 503 903 445 
Q 1169 388 1459 388 
Q 1931 388 2195 563 
Q 2459 738 2459 1019 
Q 2459 1294 2225 1461 
Q 1991 1628 1563 1628 
L 1100 1628 
L 1100 2103 
L 1584 2103 
Q 1947 2103 2158 2242 
Q 2369 2381 2369 2600 
Q 2369 2800 2151 2944 
Q 1934 3088 1563 3088 
Q 1341 3088 1089 3047 
Q 838 3006 534 2916 
L 534 3438 
Q 841 3513 1106 3550 
Q 1372 3588 1609 3588 
Q 2222 3588 2576 3342 
Q 2931 3097 2931 2656 
Q 2931 2366 2743 2164 
Q 2556 1963 2206 1888 
z
" transform="scale(0.015625)"/>
      <path id="DejaVuSans-434" d="M 1384 459 
L 3053 459 
L 3053 3041 
L 1844 3041 
L 1844 2603 
Q 1844 1316 1475 628 
L 1384 459 
z
M 550 459 
Q 834 584 959 850 
Q 1266 1509 1266 2838 
L 1266 3500 
L 3631 3500 
L 3631 459 
L 4091 459 
L 4091 -884 
L 3631 -884 
L 3631 0 
L 794 0 
L 794 -884 
L 334 -884 
L 334 459 
L 550 459 
z
" transform="scale(0.015625)"/>
      <path id="DejaVuSans-43a" d="M 581 3500 
L 1153 3500 
L 1153 1856 
L 2775 3500 
L 3481 3500 
L 2144 2147 
L 3653 0 
L 3009 0 
L 1769 1766 
L 1153 1141 
L 1153 0 
L 581 0 
L 581 3500 
z
" transform="scale(0.015625)"/>
      <path id="DejaVuSans-442" d="M 188 3500 
L 3541 3500 
L 3541 3041 
L 2147 3041 
L 2147 0 
L 1581 0 
L 1581 3041 
L 188 3041 
L 188 3500 
z
" transform="scale(0.015625)"/>
      <path id="DejaVuSans-432" d="M 1156 1613 
L 1156 459 
L 1975 459 
Q 2369 459 2575 607 
Q 2781 756 2781 1038 
Q 2781 1319 2575 1466 
Q 2369 1613 1975 1613 
L 1156 1613 
z
M 1156 3041 
L 1156 2072 
L 1913 2072 
Q 2238 2072 2444 2201 
Q 2650 2331 2650 2563 
Q 2650 2794 2444 2917 
Q 2238 3041 1913 3041 
L 1156 3041 
z
M 581 3500 
L 1950 3500 
Q 2566 3500 2897 3275 
Q 3228 3050 3228 2634 
Q 3228 2313 3059 2123 
Q 2891 1934 2559 1888 
Q 2956 1813 3175 1575 
Q 3394 1338 3394 981 
Q 3394 513 3033 256 
Q 2672 0 2003 0 
L 581 0 
L 581 3500 
z
" transform="scale(0.015625)"/>
      <path id="DejaVuSans-52" d="M 2841 2188 
Q 3044 2119 3236 1894 
Q 3428 1669 3622 1275 
L 4263 0 
L 3584 0 
L 2988 1197 
Q 2756 1666 2539 1819 
Q 2322 1972 1947 1972 
L 1259 1972 
L 1259 0 
L 628 0 
L 628 4666 
L 2053 4666 
Q 2853 4666 3247 4331 
Q 3641 3997 3641 3322 
Q 3641 2881 3436 2590 
Q 3231 2300 2841 2188 
z
M 1259 4147 
L 1259 2491 
L 2053 2491 
Q 2509 2491 2742 2702 
Q 2975 2913 2975 3322 
Q 2975 3731 2742 3939 
Q 2509 4147 2053 4147 
L 1259 4147 
z
" transform="scale(0.015625)"/>
      <path id="DejaVuSans-43" d="M 4122 4306 
L 4122 3641 
Q 3803 3938 3442 4084 
Q 3081 4231 2675 4231 
Q 1875 4231 1450 3742 
Q 1025 3253 1025 2328 
Q 1025 1406 1450 917 
Q 1875 428 2675 428 
Q 3081 428 3442 575 
Q 3803 722 4122 1019 
L 4122 359 
Q 3791 134 3420 21 
Q 3050 -91 2638 -91 
Q 1578 -91 968 557 
Q 359 1206 359 2328 
Q 359 3453 968 4101 
Q 1578 4750 2638 4750 
Q 3056 4750 3426 4639 
Q 3797 4528 4122 4306 
z
" transform="scale(0.015625)"/>
     </defs>
     <use xlink:href="#DejaVuSans-41f"/>
     <use xlink:href="#DejaVuSans-440" x="75.195312"/>
     <use xlink:href="#DejaVuSans-43e" x="138.671875"/>
     <use xlink:href="#DejaVuSans-446" x="199.853516"/>
     <use xlink:href="#DejaVuSans-435" x="267.919922"/>
     <use xlink:href="#DejaVuSans-441" x="329.443359"/>
     <use xlink:href="#DejaVuSans-441" x="384.423828"/>
     <use xlink:href="#DejaVuSans-20" x="439.404297"/>
     <use xlink:href="#DejaVuSans-437" x="471.191406"/>
     <use xlink:href="#DejaVuSans-430" x="524.365234"/>
     <use xlink:href="#DejaVuSans-440" x="585.644531"/>
     <use xlink:href="#DejaVuSans-44f" x="649.121094"/>
     <use xlink:href="#DejaVuSans-434" x="709.277344"/>
     <use xlink:href="#DejaVuSans-430" x="778.417969"/>
     <use xlink:href="#DejaVuSans-20" x="839.697266"/>
     <use xlink:href="#DejaVuSans-438" x="871.484375"/>
     <use xlink:href="#DejaVuSans-20" x="936.474609"/>
     <use xlink:href="#DejaVuSans-440" x="968.261719"/>
     <use xlink:href="#DejaVuSans-430" x="1031.738281"/>
     <use xlink:href="#DejaVuSans-437" x="1093.017578"/>
     <use xlink:href="#DejaVuSans-440" x="1146.191406"/>
     <use xlink:href="#DejaVuSans-44f" x="1209.667969"/>
     <use xlink:href="#DejaVuSans-434" x="1269.824219"/>
     <use xlink:href="#DejaVuSans-430" x="1338.964844"/>
     <use xlink:href="#DejaVuSans-20" x="1400.244141"/>
     <use xlink:href="#DejaVuSans-43a" x="1432.03125"/>
     <use xlink:href="#DejaVuSans-43e" x="1492.431641"/>
     <use xlink:href="#DejaVuSans-43d" x="1553.613281"/>
     <use xlink:href="#DejaVuSans-434" x="1618.994141"/>
     <use xlink:href="#DejaVuSans-435" x="1688.134766"/>
     <use xlink:href="#DejaVuSans-43d" x="1749.658203"/>
     <use xlink:href="#DejaVuSans-441" x="1815.039062"/>
     <use xlink:href="#DejaVuSans-430" x="1870.019531"/>
     <use xlink:href="#DejaVuSans-442" x="1931.298828"/>
     <use xlink:href="#DejaVuSans-43e" x="1989.550781"/>
     <use xlink:href="#DejaVuSans-440" x="2050.732422"/>
     <use xlink:href="#DejaVuSans-430" x="2114.208984"/>
     <use xlink:href="#DejaVuSans-20" x="2175.488281"/>
     <use xlink:href="#DejaVuSans-432" x="2207.275391"/>
     <use xlink:href="#DejaVuSans-20" x="2266.210938"/>
     <use xlink:href="#DejaVuSans-52" x="2297.998047"/>
     <use xlink:href="#DejaVuSans-43" x="2362.480469"/>
     <use xlink:href="#DejaVuSans-20" x="2432.304688"/>
     <use xlink:href="#DejaVuSans-446" x="2464.091797"/>
     <use xlink:href="#DejaVuSans-435" x="2532.158203"/>
     <use xlink:href="#DejaVuSans-43f" x="2593.681641"/>
     <use xlink:href="#DejaVuSans-438" x="2659.0625"/>
    </g>
   </g>
   <g id="legend_1">
    <g id="patch_7">
     <path d="M 864.107812 390.117188 
L 1015.8 390.117188 
Q 1021.8 390.117188 1021.8 384.117188 
L 1021.8 343.082813 
Q 1021.8 337.082813 1015.8 337.082813 
L 864.107812 337.082813 
Q 858.107812 337.082813 858.107812 343.082813 
L 858.107812 384.117188 
Q 858.107812 390.117188 864.107812 390.117188 
z
" style="fill: #ffffff; opacity: 0.8; stroke: #cccccc; stroke-linejoin: miter"/>
    </g>
    <g id="line2d_112">
     <path d="M 870.107812 361.378125 
L 900.107812 361.378125 
L 930.107812 361.378125 
" style="fill: none; stroke: #0000ff; stroke-linecap: square"/>
    </g>
    <g id="text_17">
     <!-- V(t) -->
     <g transform="translate(954.107812 371.878125) scale(0.3 -0.3)">
      <defs>
       <path id="DejaVuSans-56" d="M 1831 0 
L 50 4666 
L 709 4666 
L 2188 738 
L 3669 4666 
L 4325 4666 
L 2547 0 
L 1831 0 
z
" transform="scale(0.015625)"/>
       <path id="DejaVuSans-28" d="M 1984 4856 
Q 1566 4138 1362 3434 
Q 1159 2731 1159 2009 
Q 1159 1288 1364 580 
Q 1569 -128 1984 -844 
L 1484 -844 
Q 1016 -109 783 600 
Q 550 1309 550 2009 
Q 550 2706 781 3412 
Q 1013 4119 1484 4856 
L 1984 4856 
z
" transform="scale(0.015625)"/>
       <path id="DejaVuSans-74" d="M 1172 4494 
L 1172 3500 
L 2356 3500 
L 2356 3053 
L 1172 3053 
L 1172 1153 
Q 1172 725 1289 603 
Q 1406 481 1766 481 
L 2356 481 
L 2356 0 
L 1766 0 
Q 1100 0 847 248 
Q 594 497 594 1153 
L 594 3053 
L 172 3053 
L 172 3500 
L 594 3500 
L 594 4494 
L 1172 4494 
z
" transform="scale(0.015625)"/>
       <path id="DejaVuSans-29" d="M 513 4856 
L 1013 4856 
Q 1481 4119 1714 3412 
Q 1947 2706 1947 2009 
Q 1947 1309 1714 600 
Q 1481 -109 1013 -844 
L 513 -844 
Q 928 -128 1133 580 
Q 1338 1288 1338 2009 
Q 1338 2731 1133 3434 
Q 928 4138 513 4856 
z
" transform="scale(0.015625)"/>
      </defs>
      <use xlink:href="#DejaVuSans-56"/>
      <use xlink:href="#DejaVuSans-28" x="68.408203"/>
      <use xlink:href="#DejaVuSans-74" x="107.421875"/>
      <use xlink:href="#DejaVuSans-29" x="146.630859"/>
     </g>
    </g>
   </g>
  </g>
 </g>
 <defs>
  <clipPath id="p892c4a2a8b">
   <rect x="144" y="86.4" width="892.8" height="554.4"/>
  </clipPath>
 </defs>
</svg>
